<?xml version="1.0" encoding="utf-8" standalone="no"?>
<!DOCTYPE svg PUBLIC "-//W3C//DTD SVG 1.1//EN"
  "http://www.w3.org/Graphics/SVG/1.1/DTD/svg11.dtd">
<svg xmlns:xlink="http://www.w3.org/1999/xlink" width="527.303608pt" height="210.250568pt" viewBox="0 0 527.303608 210.250568" xmlns="http://www.w3.org/2000/svg" version="1.1">
 <metadata>
  <rdf:RDF xmlns:dc="http://purl.org/dc/elements/1.1/" xmlns:cc="http://creativecommons.org/ns#" xmlns:rdf="http://www.w3.org/1999/02/22-rdf-syntax-ns#">
   <cc:Work>
    <dc:type rdf:resource="http://purl.org/dc/dcmitype/StillImage"/>
    <dc:date>2026-08-11T21:14:45.940078</dc:date>
    <dc:format>image/svg+xml</dc:format>
    <dc:creator>
     <cc:Agent>
      <dc:title>Matplotlib v3.10.8, https://matplotlib.org/</dc:title>
     </cc:Agent>
    </dc:creator>
   </cc:Work>
  </rdf:RDF>
 </metadata>
 <defs>
  <style type="text/css">*{stroke-linejoin: round; stroke-linecap: butt}</style>
 </defs>
 <g id="figure_1">
  <g id="patch_1">
   <path d="M 0 210.250568 
L 527.303608 210.250568 
L 527.303608 0 
L 0 0 
z
" style="fill: #ffffff"/>
  </g>
  <g id="axes_1">
   <g id="patch_2">
    <path d="M 44.089063 187.340256 
L 520.103608 187.340256 
L 520.103608 20.798438 
L 44.089063 20.798438 
z
" style="fill: #ffffff"/>
   </g>
   <g id="patch_3">
    <path d="M 378.432612 187.340256 
L 514.436768 187.340256 
L 514.436768 20.798438 
L 378.432612 20.798438 
z
" clip-path="url(#pf8fe27a7a6)" style="fill: #f2f4f6; stroke: #f2f4f6; stroke-linejoin: miter"/>
   </g>
   <g id="matplotlib.axis_1">
    <g id="xtick_1">
     <g id="line2d_1">
      <defs>
       <path id="m873524a9ff" d="M 0 0 
L 0 3.5 
" style="stroke: #8c8c8c; stroke-width: 0.8"/>
      </defs>
      <g>
       <use xlink:href="#m873524a9ff" x="78.090101" y="187.340256" style="fill: #8c8c8c; stroke: #8c8c8c; stroke-width: 0.8"/>
      </g>
     </g>
     <g id="text_1">
      <!-- Mon -->
      <g style="fill: #8c8c8c" transform="translate(68.602133 201.178849) scale(0.09 -0.09)">
       <defs>
        <path id="DejaVuSans-4d" d="M 628 4666 
L 1569 4666 
L 2759 1491 
L 3956 4666 
L 4897 4666 
L 4897 0 
L 4281 0 
L 4281 4097 
L 3078 897 
L 2444 897 
L 1241 4097 
L 1241 0 
L 628 0 
L 628 4666 
z
" transform="scale(0.015625)"/>
        <path id="DejaVuSans-6f" d="M 1959 3097 
Q 1497 3097 1228 2736 
Q 959 2375 959 1747 
Q 959 1119 1226 758 
Q 1494 397 1959 397 
Q 2419 397 2687 759 
Q 2956 1122 2956 1747 
Q 2956 2369 2687 2733 
Q 2419 3097 1959 3097 
z
M 1959 3584 
Q 2709 3584 3137 3096 
Q 3566 2609 3566 1747 
Q 3566 888 3137 398 
Q 2709 -91 1959 -91 
Q 1206 -91 779 398 
Q 353 888 353 1747 
Q 353 2609 779 3096 
Q 1206 3584 1959 3584 
z
" transform="scale(0.015625)"/>
        <path id="DejaVuSans-6e" d="M 3513 2113 
L 3513 0 
L 2938 0 
L 2938 2094 
Q 2938 2591 2744 2837 
Q 2550 3084 2163 3084 
Q 1697 3084 1428 2787 
Q 1159 2491 1159 1978 
L 1159 0 
L 581 0 
L 581 3500 
L 1159 3500 
L 1159 2956 
Q 1366 3272 1645 3428 
Q 1925 3584 2291 3584 
Q 2894 3584 3203 3211 
Q 3513 2838 3513 2113 
z
" transform="scale(0.015625)"/>
       </defs>
       <use xlink:href="#DejaVuSans-4d"/>
       <use xlink:href="#DejaVuSans-6f" transform="translate(86.279297 0)"/>
       <use xlink:href="#DejaVuSans-6e" transform="translate(147.460938 0)"/>
      </g>
     </g>
    </g>
    <g id="xtick_2">
     <g id="line2d_2">
      <g>
       <use xlink:href="#m873524a9ff" x="146.092179" y="187.340256" style="fill: #8c8c8c; stroke: #8c8c8c; stroke-width: 0.8"/>
      </g>
     </g>
     <g id="text_2">
      <!-- Tue -->
      <g style="fill: #8c8c8c" transform="translate(138.403508 201.178849) scale(0.09 -0.09)">
       <defs>
        <path id="DejaVuSans-54" d="M -19 4666 
L 3928 4666 
L 3928 4134 
L 2272 4134 
L 2272 0 
L 1638 0 
L 1638 4134 
L -19 4134 
L -19 4666 
z
" transform="scale(0.015625)"/>
        <path id="DejaVuSans-75" d="M 544 1381 
L 544 3500 
L 1119 3500 
L 1119 1403 
Q 1119 906 1312 657 
Q 1506 409 1894 409 
Q 2359 409 2629 706 
Q 2900 1003 2900 1516 
L 2900 3500 
L 3475 3500 
L 3475 0 
L 2900 0 
L 2900 538 
Q 2691 219 2414 64 
Q 2138 -91 1772 -91 
Q 1169 -91 856 284 
Q 544 659 544 1381 
z
M 1991 3584 
L 1991 3584 
z
" transform="scale(0.015625)"/>
        <path id="DejaVuSans-65" d="M 3597 1894 
L 3597 1613 
L 953 1613 
Q 991 1019 1311 708 
Q 1631 397 2203 397 
Q 2534 397 2845 478 
Q 3156 559 3463 722 
L 3463 178 
Q 3153 47 2828 -22 
Q 2503 -91 2169 -91 
Q 1331 -91 842 396 
Q 353 884 353 1716 
Q 353 2575 817 3079 
Q 1281 3584 2069 3584 
Q 2775 3584 3186 3129 
Q 3597 2675 3597 1894 
z
M 3022 2063 
Q 3016 2534 2758 2815 
Q 2500 3097 2075 3097 
Q 1594 3097 1305 2825 
Q 1016 2553 972 2059 
L 3022 2063 
z
" transform="scale(0.015625)"/>
       </defs>
       <use xlink:href="#DejaVuSans-54"/>
       <use xlink:href="#DejaVuSans-75" transform="translate(45.958984 0)"/>
       <use xlink:href="#DejaVuSans-65" transform="translate(109.337891 0)"/>
      </g>
     </g>
    </g>
    <g id="xtick_3">
     <g id="line2d_3">
      <g>
       <use xlink:href="#m873524a9ff" x="214.094257" y="187.340256" style="fill: #8c8c8c; stroke: #8c8c8c; stroke-width: 0.8"/>
      </g>
     </g>
     <g id="text_3">
      <!-- Wed -->
      <g style="fill: #8c8c8c" transform="translate(204.283554 201.178849) scale(0.09 -0.09)">
       <defs>
        <path id="DejaVuSans-57" d="M 213 4666 
L 850 4666 
L 1831 722 
L 2809 4666 
L 3519 4666 
L 4500 722 
L 5478 4666 
L 6119 4666 
L 4947 0 
L 4153 0 
L 3169 4050 
L 2175 0 
L 1381 0 
L 213 4666 
z
" transform="scale(0.015625)"/>
        <path id="DejaVuSans-64" d="M 2906 2969 
L 2906 4863 
L 3481 4863 
L 3481 0 
L 2906 0 
L 2906 525 
Q 2725 213 2448 61 
Q 2172 -91 1784 -91 
Q 1150 -91 751 415 
Q 353 922 353 1747 
Q 353 2572 751 3078 
Q 1150 3584 1784 3584 
Q 2172 3584 2448 3432 
Q 2725 3281 2906 2969 
z
M 947 1747 
Q 947 1113 1208 752 
Q 1469 391 1925 391 
Q 2381 391 2643 752 
Q 2906 1113 2906 1747 
Q 2906 2381 2643 2742 
Q 2381 3103 1925 3103 
Q 1469 3103 1208 2742 
Q 947 2381 947 1747 
z
" transform="scale(0.015625)"/>
       </defs>
       <use xlink:href="#DejaVuSans-57"/>
       <use xlink:href="#DejaVuSans-65" transform="translate(93.001953 0)"/>
       <use xlink:href="#DejaVuSans-64" transform="translate(154.525391 0)"/>
      </g>
     </g>
    </g>
    <g id="xtick_4">
     <g id="line2d_4">
      <g>
       <use xlink:href="#m873524a9ff" x="282.096335" y="187.340256" style="fill: #8c8c8c; stroke: #8c8c8c; stroke-width: 0.8"/>
      </g>
     </g>
     <g id="text_4">
      <!-- Thu -->
      <g style="fill: #8c8c8c" transform="translate(273.64407 201.178849) scale(0.09 -0.09)">
       <defs>
        <path id="DejaVuSans-68" d="M 3513 2113 
L 3513 0 
L 2938 0 
L 2938 2094 
Q 2938 2591 2744 2837 
Q 2550 3084 2163 3084 
Q 1697 3084 1428 2787 
Q 1159 2491 1159 1978 
L 1159 0 
L 581 0 
L 581 4863 
L 1159 4863 
L 1159 2956 
Q 1366 3272 1645 3428 
Q 1925 3584 2291 3584 
Q 2894 3584 3203 3211 
Q 3513 2838 3513 2113 
z
" transform="scale(0.015625)"/>
       </defs>
       <use xlink:href="#DejaVuSans-54"/>
       <use xlink:href="#DejaVuSans-68" transform="translate(61.083984 0)"/>
       <use xlink:href="#DejaVuSans-75" transform="translate(124.462891 0)"/>
      </g>
     </g>
    </g>
    <g id="xtick_5">
     <g id="line2d_5">
      <g>
       <use xlink:href="#m873524a9ff" x="350.098413" y="187.340256" style="fill: #8c8c8c; stroke: #8c8c8c; stroke-width: 0.8"/>
      </g>
     </g>
     <g id="text_5">
      <!-- Fri -->
      <g style="fill: #8c8c8c" transform="translate(344.736382 201.178849) scale(0.09 -0.09)">
       <defs>
        <path id="DejaVuSans-46" d="M 628 4666 
L 3309 4666 
L 3309 4134 
L 1259 4134 
L 1259 2759 
L 3109 2759 
L 3109 2228 
L 1259 2228 
L 1259 0 
L 628 0 
L 628 4666 
z
" transform="scale(0.015625)"/>
        <path id="DejaVuSans-72" d="M 2631 2963 
Q 2534 3019 2420 3045 
Q 2306 3072 2169 3072 
Q 1681 3072 1420 2755 
Q 1159 2438 1159 1844 
L 1159 0 
L 581 0 
L 581 3500 
L 1159 3500 
L 1159 2956 
Q 1341 3275 1631 3429 
Q 1922 3584 2338 3584 
Q 2397 3584 2469 3576 
Q 2541 3569 2628 3553 
L 2631 2963 
z
" transform="scale(0.015625)"/>
        <path id="DejaVuSans-69" d="M 603 3500 
L 1178 3500 
L 1178 0 
L 603 0 
L 603 3500 
z
M 603 4863 
L 1178 4863 
L 1178 4134 
L 603 4134 
L 603 4863 
z
" transform="scale(0.015625)"/>
       </defs>
       <use xlink:href="#DejaVuSans-46"/>
       <use xlink:href="#DejaVuSans-72" transform="translate(50.269531 0)"/>
       <use xlink:href="#DejaVuSans-69" transform="translate(91.382812 0)"/>
      </g>
     </g>
    </g>
    <g id="xtick_6">
     <g id="line2d_6">
      <g>
       <use xlink:href="#m873524a9ff" x="418.100491" y="187.340256" style="fill: #8c8c8c; stroke: #8c8c8c; stroke-width: 0.8"/>
      </g>
     </g>
     <g id="text_6">
      <!-- Sat -->
      <g style="fill: #8c8c8c" transform="translate(410.721897 201.178849) scale(0.09 -0.09)">
       <defs>
        <path id="DejaVuSans-53" d="M 3425 4513 
L 3425 3897 
Q 3066 4069 2747 4153 
Q 2428 4238 2131 4238 
Q 1616 4238 1336 4038 
Q 1056 3838 1056 3469 
Q 1056 3159 1242 3001 
Q 1428 2844 1947 2747 
L 2328 2669 
Q 3034 2534 3370 2195 
Q 3706 1856 3706 1288 
Q 3706 609 3251 259 
Q 2797 -91 1919 -91 
Q 1588 -91 1214 -16 
Q 841 59 441 206 
L 441 856 
Q 825 641 1194 531 
Q 1563 422 1919 422 
Q 2459 422 2753 634 
Q 3047 847 3047 1241 
Q 3047 1584 2836 1778 
Q 2625 1972 2144 2069 
L 1759 2144 
Q 1053 2284 737 2584 
Q 422 2884 422 3419 
Q 422 4038 858 4394 
Q 1294 4750 2059 4750 
Q 2388 4750 2728 4690 
Q 3069 4631 3425 4513 
z
" transform="scale(0.015625)"/>
        <path id="DejaVuSans-61" d="M 2194 1759 
Q 1497 1759 1228 1600 
Q 959 1441 959 1056 
Q 959 750 1161 570 
Q 1363 391 1709 391 
Q 2188 391 2477 730 
Q 2766 1069 2766 1631 
L 2766 1759 
L 2194 1759 
z
M 3341 1997 
L 3341 0 
L 2766 0 
L 2766 531 
Q 2569 213 2275 61 
Q 1981 -91 1556 -91 
Q 1019 -91 701 211 
Q 384 513 384 1019 
Q 384 1609 779 1909 
Q 1175 2209 1959 2209 
L 2766 2209 
L 2766 2266 
Q 2766 2663 2505 2880 
Q 2244 3097 1772 3097 
Q 1472 3097 1187 3025 
Q 903 2953 641 2809 
L 641 3341 
Q 956 3463 1253 3523 
Q 1550 3584 1831 3584 
Q 2591 3584 2966 3190 
Q 3341 2797 3341 1997 
z
" transform="scale(0.015625)"/>
        <path id="DejaVuSans-74" d="M 1172 4494 
L 1172 3500 
L 2356 3500 
L 2356 3053 
L 1172 3053 
L 1172 1153 
Q 1172 725 1289 603 
Q 1406 481 1766 481 
L 2356 481 
L 2356 0 
L 1766 0 
Q 1100 0 847 248 
Q 594 497 594 1153 
L 594 3053 
L 172 3053 
L 172 3500 
L 594 3500 
L 594 4494 
L 1172 4494 
z
" transform="scale(0.015625)"/>
       </defs>
       <use xlink:href="#DejaVuSans-53"/>
       <use xlink:href="#DejaVuSans-61" transform="translate(63.476562 0)"/>
       <use xlink:href="#DejaVuSans-74" transform="translate(124.755859 0)"/>
      </g>
     </g>
    </g>
    <g id="xtick_7">
     <g id="line2d_7">
      <g>
       <use xlink:href="#m873524a9ff" x="486.102569" y="187.340256" style="fill: #8c8c8c; stroke: #8c8c8c; stroke-width: 0.8"/>
      </g>
     </g>
     <g id="text_7">
      <!-- Sun -->
      <g style="fill: #8c8c8c" transform="translate(477.542022 201.178849) scale(0.09 -0.09)">
       <use xlink:href="#DejaVuSans-53"/>
       <use xlink:href="#DejaVuSans-75" transform="translate(63.476562 0)"/>
       <use xlink:href="#DejaVuSans-6e" transform="translate(126.855469 0)"/>
      </g>
     </g>
    </g>
   </g>
   <g id="matplotlib.axis_2">
    <g id="ytick_1">
     <g id="line2d_8">
      <path d="M 44.089063 183.771521 
L 520.103608 183.771521 
" clip-path="url(#pf8fe27a7a6)" style="fill: none; stroke: #e2e2e2; stroke-width: 0.7; stroke-linecap: square"/>
     </g>
     <g id="line2d_9">
      <defs>
       <path id="mfe6dfe1da6" d="M 0 0 
L -3.5 0 
" style="stroke: #8c8c8c; stroke-width: 0.8"/>
      </defs>
      <g>
       <use xlink:href="#mfe6dfe1da6" x="44.089063" y="183.771521" style="fill: #8c8c8c; stroke: #8c8c8c; stroke-width: 0.8"/>
      </g>
     </g>
     <g id="text_8">
      <!-- 200 -->
      <g style="fill: #8c8c8c" transform="translate(19.910313 187.190818) scale(0.09 -0.09)">
       <defs>
        <path id="DejaVuSans-32" d="M 1228 531 
L 3431 531 
L 3431 0 
L 469 0 
L 469 531 
Q 828 903 1448 1529 
Q 2069 2156 2228 2338 
Q 2531 2678 2651 2914 
Q 2772 3150 2772 3378 
Q 2772 3750 2511 3984 
Q 2250 4219 1831 4219 
Q 1534 4219 1204 4116 
Q 875 4013 500 3803 
L 500 4441 
Q 881 4594 1212 4672 
Q 1544 4750 1819 4750 
Q 2544 4750 2975 4387 
Q 3406 4025 3406 3419 
Q 3406 3131 3298 2873 
Q 3191 2616 2906 2266 
Q 2828 2175 2409 1742 
Q 1991 1309 1228 531 
z
" transform="scale(0.015625)"/>
        <path id="DejaVuSans-30" d="M 2034 4250 
Q 1547 4250 1301 3770 
Q 1056 3291 1056 2328 
Q 1056 1369 1301 889 
Q 1547 409 2034 409 
Q 2525 409 2770 889 
Q 3016 1369 3016 2328 
Q 3016 3291 2770 3770 
Q 2525 4250 2034 4250 
z
M 2034 4750 
Q 2819 4750 3233 4129 
Q 3647 3509 3647 2328 
Q 3647 1150 3233 529 
Q 2819 -91 2034 -91 
Q 1250 -91 836 529 
Q 422 1150 422 2328 
Q 422 3509 836 4129 
Q 1250 4750 2034 4750 
z
" transform="scale(0.015625)"/>
       </defs>
       <use xlink:href="#DejaVuSans-32"/>
       <use xlink:href="#DejaVuSans-30" transform="translate(63.623047 0)"/>
       <use xlink:href="#DejaVuSans-30" transform="translate(127.246094 0)"/>
      </g>
     </g>
    </g>
    <g id="ytick_2">
     <g id="line2d_10">
      <path d="M 44.089063 156.786209 
L 520.103608 156.786209 
" clip-path="url(#pf8fe27a7a6)" style="fill: none; stroke: #e2e2e2; stroke-width: 0.7; stroke-linecap: square"/>
     </g>
     <g id="line2d_11">
      <g>
       <use xlink:href="#mfe6dfe1da6" x="44.089063" y="156.786209" style="fill: #8c8c8c; stroke: #8c8c8c; stroke-width: 0.8"/>
      </g>
     </g>
     <g id="text_9">
      <!-- 210 -->
      <g style="fill: #8c8c8c" transform="translate(19.910313 160.205506) scale(0.09 -0.09)">
       <defs>
        <path id="DejaVuSans-31" d="M 794 531 
L 1825 531 
L 1825 4091 
L 703 3866 
L 703 4441 
L 1819 4666 
L 2450 4666 
L 2450 531 
L 3481 531 
L 3481 0 
L 794 0 
L 794 531 
z
" transform="scale(0.015625)"/>
       </defs>
       <use xlink:href="#DejaVuSans-32"/>
       <use xlink:href="#DejaVuSans-31" transform="translate(63.623047 0)"/>
       <use xlink:href="#DejaVuSans-30" transform="translate(127.246094 0)"/>
      </g>
     </g>
    </g>
    <g id="ytick_3">
     <g id="line2d_12">
      <path d="M 44.089063 129.800896 
L 520.103608 129.800896 
" clip-path="url(#pf8fe27a7a6)" style="fill: none; stroke: #e2e2e2; stroke-width: 0.7; stroke-linecap: square"/>
     </g>
     <g id="line2d_13">
      <g>
       <use xlink:href="#mfe6dfe1da6" x="44.089063" y="129.800896" style="fill: #8c8c8c; stroke: #8c8c8c; stroke-width: 0.8"/>
      </g>
     </g>
     <g id="text_10">
      <!-- 220 -->
      <g style="fill: #8c8c8c" transform="translate(19.910313 133.220193) scale(0.09 -0.09)">
       <use xlink:href="#DejaVuSans-32"/>
       <use xlink:href="#DejaVuSans-32" transform="translate(63.623047 0)"/>
       <use xlink:href="#DejaVuSans-30" transform="translate(127.246094 0)"/>
      </g>
     </g>
    </g>
    <g id="ytick_4">
     <g id="line2d_14">
      <path d="M 44.089063 102.815583 
L 520.103608 102.815583 
" clip-path="url(#pf8fe27a7a6)" style="fill: none; stroke: #e2e2e2; stroke-width: 0.7; stroke-linecap: square"/>
     </g>
     <g id="line2d_15">
      <g>
       <use xlink:href="#mfe6dfe1da6" x="44.089063" y="102.815583" style="fill: #8c8c8c; stroke: #8c8c8c; stroke-width: 0.8"/>
      </g>
     </g>
     <g id="text_11">
      <!-- 230 -->
      <g style="fill: #8c8c8c" transform="translate(19.910313 106.23488) scale(0.09 -0.09)">
       <defs>
        <path id="DejaVuSans-33" d="M 2597 2516 
Q 3050 2419 3304 2112 
Q 3559 1806 3559 1356 
Q 3559 666 3084 287 
Q 2609 -91 1734 -91 
Q 1441 -91 1130 -33 
Q 819 25 488 141 
L 488 750 
Q 750 597 1062 519 
Q 1375 441 1716 441 
Q 2309 441 2620 675 
Q 2931 909 2931 1356 
Q 2931 1769 2642 2001 
Q 2353 2234 1838 2234 
L 1294 2234 
L 1294 2753 
L 1863 2753 
Q 2328 2753 2575 2939 
Q 2822 3125 2822 3475 
Q 2822 3834 2567 4026 
Q 2313 4219 1838 4219 
Q 1578 4219 1281 4162 
Q 984 4106 628 3988 
L 628 4550 
Q 988 4650 1302 4700 
Q 1616 4750 1894 4750 
Q 2613 4750 3031 4423 
Q 3450 4097 3450 3541 
Q 3450 3153 3228 2886 
Q 3006 2619 2597 2516 
z
" transform="scale(0.015625)"/>
       </defs>
       <use xlink:href="#DejaVuSans-32"/>
       <use xlink:href="#DejaVuSans-33" transform="translate(63.623047 0)"/>
       <use xlink:href="#DejaVuSans-30" transform="translate(127.246094 0)"/>
      </g>
     </g>
    </g>
    <g id="ytick_5">
     <g id="line2d_16">
      <path d="M 44.089063 75.830271 
L 520.103608 75.830271 
" clip-path="url(#pf8fe27a7a6)" style="fill: none; stroke: #e2e2e2; stroke-width: 0.7; stroke-linecap: square"/>
     </g>
     <g id="line2d_17">
      <g>
       <use xlink:href="#mfe6dfe1da6" x="44.089063" y="75.830271" style="fill: #8c8c8c; stroke: #8c8c8c; stroke-width: 0.8"/>
      </g>
     </g>
     <g id="text_12">
      <!-- 240 -->
      <g style="fill: #8c8c8c" transform="translate(19.910313 79.249568) scale(0.09 -0.09)">
       <defs>
        <path id="DejaVuSans-34" d="M 2419 4116 
L 825 1625 
L 2419 1625 
L 2419 4116 
z
M 2253 4666 
L 3047 4666 
L 3047 1625 
L 3713 1625 
L 3713 1100 
L 3047 1100 
L 3047 0 
L 2419 0 
L 2419 1100 
L 313 1100 
L 313 1709 
L 2253 4666 
z
" transform="scale(0.015625)"/>
       </defs>
       <use xlink:href="#DejaVuSans-32"/>
       <use xlink:href="#DejaVuSans-34" transform="translate(63.623047 0)"/>
       <use xlink:href="#DejaVuSans-30" transform="translate(127.246094 0)"/>
      </g>
     </g>
    </g>
    <g id="ytick_6">
     <g id="line2d_18">
      <path d="M 44.089063 48.844958 
L 520.103608 48.844958 
" clip-path="url(#pf8fe27a7a6)" style="fill: none; stroke: #e2e2e2; stroke-width: 0.7; stroke-linecap: square"/>
     </g>
     <g id="line2d_19">
      <g>
       <use xlink:href="#mfe6dfe1da6" x="44.089063" y="48.844958" style="fill: #8c8c8c; stroke: #8c8c8c; stroke-width: 0.8"/>
      </g>
     </g>
     <g id="text_13">
      <!-- 250 -->
      <g style="fill: #8c8c8c" transform="translate(19.910313 52.264255) scale(0.09 -0.09)">
       <defs>
        <path id="DejaVuSans-35" d="M 691 4666 
L 3169 4666 
L 3169 4134 
L 1269 4134 
L 1269 2991 
Q 1406 3038 1543 3061 
Q 1681 3084 1819 3084 
Q 2600 3084 3056 2656 
Q 3513 2228 3513 1497 
Q 3513 744 3044 326 
Q 2575 -91 1722 -91 
Q 1428 -91 1123 -41 
Q 819 9 494 109 
L 494 744 
Q 775 591 1075 516 
Q 1375 441 1709 441 
Q 2250 441 2565 725 
Q 2881 1009 2881 1497 
Q 2881 1984 2565 2268 
Q 2250 2553 1709 2553 
Q 1456 2553 1204 2497 
Q 953 2441 691 2322 
L 691 4666 
z
" transform="scale(0.015625)"/>
       </defs>
       <use xlink:href="#DejaVuSans-32"/>
       <use xlink:href="#DejaVuSans-35" transform="translate(63.623047 0)"/>
       <use xlink:href="#DejaVuSans-30" transform="translate(127.246094 0)"/>
      </g>
     </g>
    </g>
    <g id="ytick_7">
     <g id="line2d_20">
      <path d="M 44.089063 21.859645 
L 520.103608 21.859645 
" clip-path="url(#pf8fe27a7a6)" style="fill: none; stroke: #e2e2e2; stroke-width: 0.7; stroke-linecap: square"/>
     </g>
     <g id="line2d_21">
      <g>
       <use xlink:href="#mfe6dfe1da6" x="44.089063" y="21.859645" style="fill: #8c8c8c; stroke: #8c8c8c; stroke-width: 0.8"/>
      </g>
     </g>
     <g id="text_14">
      <!-- 260 -->
      <g style="fill: #8c8c8c" transform="translate(19.910313 25.278942) scale(0.09 -0.09)">
       <defs>
        <path id="DejaVuSans-36" d="M 2113 2584 
Q 1688 2584 1439 2293 
Q 1191 2003 1191 1497 
Q 1191 994 1439 701 
Q 1688 409 2113 409 
Q 2538 409 2786 701 
Q 3034 994 3034 1497 
Q 3034 2003 2786 2293 
Q 2538 2584 2113 2584 
z
M 3366 4563 
L 3366 3988 
Q 3128 4100 2886 4159 
Q 2644 4219 2406 4219 
Q 1781 4219 1451 3797 
Q 1122 3375 1075 2522 
Q 1259 2794 1537 2939 
Q 1816 3084 2150 3084 
Q 2853 3084 3261 2657 
Q 3669 2231 3669 1497 
Q 3669 778 3244 343 
Q 2819 -91 2113 -91 
Q 1303 -91 875 529 
Q 447 1150 447 2328 
Q 447 3434 972 4092 
Q 1497 4750 2381 4750 
Q 2619 4750 2861 4703 
Q 3103 4656 3366 4563 
z
" transform="scale(0.015625)"/>
       </defs>
       <use xlink:href="#DejaVuSans-32"/>
       <use xlink:href="#DejaVuSans-36" transform="translate(63.623047 0)"/>
       <use xlink:href="#DejaVuSans-30" transform="translate(127.246094 0)"/>
      </g>
     </g>
    </g>
    <g id="text_15">
     <!-- mean retail half-spread (bps) -->
     <g style="fill: #1b1b1b" transform="translate(14.038594 169.383331) rotate(-90) scale(0.09 -0.09)">
      <defs>
       <path id="DejaVuSans-6d" d="M 3328 2828 
Q 3544 3216 3844 3400 
Q 4144 3584 4550 3584 
Q 5097 3584 5394 3201 
Q 5691 2819 5691 2113 
L 5691 0 
L 5113 0 
L 5113 2094 
Q 5113 2597 4934 2840 
Q 4756 3084 4391 3084 
Q 3944 3084 3684 2787 
Q 3425 2491 3425 1978 
L 3425 0 
L 2847 0 
L 2847 2094 
Q 2847 2600 2669 2842 
Q 2491 3084 2119 3084 
Q 1678 3084 1418 2786 
Q 1159 2488 1159 1978 
L 1159 0 
L 581 0 
L 581 3500 
L 1159 3500 
L 1159 2956 
Q 1356 3278 1631 3431 
Q 1906 3584 2284 3584 
Q 2666 3584 2933 3390 
Q 3200 3197 3328 2828 
z
" transform="scale(0.015625)"/>
       <path id="DejaVuSans-20" transform="scale(0.015625)"/>
       <path id="DejaVuSans-6c" d="M 603 4863 
L 1178 4863 
L 1178 0 
L 603 0 
L 603 4863 
z
" transform="scale(0.015625)"/>
       <path id="DejaVuSans-66" d="M 2375 4863 
L 2375 4384 
L 1825 4384 
Q 1516 4384 1395 4259 
Q 1275 4134 1275 3809 
L 1275 3500 
L 2222 3500 
L 2222 3053 
L 1275 3053 
L 1275 0 
L 697 0 
L 697 3053 
L 147 3053 
L 147 3500 
L 697 3500 
L 697 3744 
Q 697 4328 969 4595 
Q 1241 4863 1831 4863 
L 2375 4863 
z
" transform="scale(0.015625)"/>
       <path id="DejaVuSans-2d" d="M 313 2009 
L 1997 2009 
L 1997 1497 
L 313 1497 
L 313 2009 
z
" transform="scale(0.015625)"/>
       <path id="DejaVuSans-73" d="M 2834 3397 
L 2834 2853 
Q 2591 2978 2328 3040 
Q 2066 3103 1784 3103 
Q 1356 3103 1142 2972 
Q 928 2841 928 2578 
Q 928 2378 1081 2264 
Q 1234 2150 1697 2047 
L 1894 2003 
Q 2506 1872 2764 1633 
Q 3022 1394 3022 966 
Q 3022 478 2636 193 
Q 2250 -91 1575 -91 
Q 1294 -91 989 -36 
Q 684 19 347 128 
L 347 722 
Q 666 556 975 473 
Q 1284 391 1588 391 
Q 1994 391 2212 530 
Q 2431 669 2431 922 
Q 2431 1156 2273 1281 
Q 2116 1406 1581 1522 
L 1381 1569 
Q 847 1681 609 1914 
Q 372 2147 372 2553 
Q 372 3047 722 3315 
Q 1072 3584 1716 3584 
Q 2034 3584 2315 3537 
Q 2597 3491 2834 3397 
z
" transform="scale(0.015625)"/>
       <path id="DejaVuSans-70" d="M 1159 525 
L 1159 -1331 
L 581 -1331 
L 581 3500 
L 1159 3500 
L 1159 2969 
Q 1341 3281 1617 3432 
Q 1894 3584 2278 3584 
Q 2916 3584 3314 3078 
Q 3713 2572 3713 1747 
Q 3713 922 3314 415 
Q 2916 -91 2278 -91 
Q 1894 -91 1617 61 
Q 1341 213 1159 525 
z
M 3116 1747 
Q 3116 2381 2855 2742 
Q 2594 3103 2138 3103 
Q 1681 3103 1420 2742 
Q 1159 2381 1159 1747 
Q 1159 1113 1420 752 
Q 1681 391 2138 391 
Q 2594 391 2855 752 
Q 3116 1113 3116 1747 
z
" transform="scale(0.015625)"/>
       <path id="DejaVuSans-28" d="M 1984 4856 
Q 1566 4138 1362 3434 
Q 1159 2731 1159 2009 
Q 1159 1288 1364 580 
Q 1569 -128 1984 -844 
L 1484 -844 
Q 1016 -109 783 600 
Q 550 1309 550 2009 
Q 550 2706 781 3412 
Q 1013 4119 1484 4856 
L 1984 4856 
z
" transform="scale(0.015625)"/>
       <path id="DejaVuSans-62" d="M 3116 1747 
Q 3116 2381 2855 2742 
Q 2594 3103 2138 3103 
Q 1681 3103 1420 2742 
Q 1159 2381 1159 1747 
Q 1159 1113 1420 752 
Q 1681 391 2138 391 
Q 2594 391 2855 752 
Q 3116 1113 3116 1747 
z
M 1159 2969 
Q 1341 3281 1617 3432 
Q 1894 3584 2278 3584 
Q 2916 3584 3314 3078 
Q 3713 2572 3713 1747 
Q 3713 922 3314 415 
Q 2916 -91 2278 -91 
Q 1894 -91 1617 61 
Q 1341 213 1159 525 
L 1159 0 
L 581 0 
L 581 4863 
L 1159 4863 
L 1159 2969 
z
" transform="scale(0.015625)"/>
       <path id="DejaVuSans-29" d="M 513 4856 
L 1013 4856 
Q 1481 4119 1714 3412 
Q 1947 2706 1947 2009 
Q 1947 1309 1714 600 
Q 1481 -109 1013 -844 
L 513 -844 
Q 928 -128 1133 580 
Q 1338 1288 1338 2009 
Q 1338 2731 1133 3434 
Q 928 4138 513 4856 
z
" transform="scale(0.015625)"/>
      </defs>
      <use xlink:href="#DejaVuSans-6d"/>
      <use xlink:href="#DejaVuSans-65" transform="translate(97.412109 0)"/>
      <use xlink:href="#DejaVuSans-61" transform="translate(158.935547 0)"/>
      <use xlink:href="#DejaVuSans-6e" transform="translate(220.214844 0)"/>
      <use xlink:href="#DejaVuSans-20" transform="translate(283.59375 0)"/>
      <use xlink:href="#DejaVuSans-72" transform="translate(315.380859 0)"/>
      <use xlink:href="#DejaVuSans-65" transform="translate(354.244141 0)"/>
      <use xlink:href="#DejaVuSans-74" transform="translate(415.767578 0)"/>
      <use xlink:href="#DejaVuSans-61" transform="translate(454.976562 0)"/>
      <use xlink:href="#DejaVuSans-69" transform="translate(516.255859 0)"/>
      <use xlink:href="#DejaVuSans-6c" transform="translate(544.039062 0)"/>
      <use xlink:href="#DejaVuSans-20" transform="translate(571.822266 0)"/>
      <use xlink:href="#DejaVuSans-68" transform="translate(603.609375 0)"/>
      <use xlink:href="#DejaVuSans-61" transform="translate(666.988281 0)"/>
      <use xlink:href="#DejaVuSans-6c" transform="translate(728.267578 0)"/>
      <use xlink:href="#DejaVuSans-66" transform="translate(756.050781 0)"/>
      <use xlink:href="#DejaVuSans-2d" transform="translate(785.755859 0)"/>
      <use xlink:href="#DejaVuSans-73" transform="translate(821.839844 0)"/>
      <use xlink:href="#DejaVuSans-70" transform="translate(873.939453 0)"/>
      <use xlink:href="#DejaVuSans-72" transform="translate(937.416016 0)"/>
      <use xlink:href="#DejaVuSans-65" transform="translate(976.279297 0)"/>
      <use xlink:href="#DejaVuSans-61" transform="translate(1037.802734 0)"/>
      <use xlink:href="#DejaVuSans-64" transform="translate(1099.082031 0)"/>
      <use xlink:href="#DejaVuSans-20" transform="translate(1162.558594 0)"/>
      <use xlink:href="#DejaVuSans-28" transform="translate(1194.345703 0)"/>
      <use xlink:href="#DejaVuSans-62" transform="translate(1233.359375 0)"/>
      <use xlink:href="#DejaVuSans-70" transform="translate(1296.835938 0)"/>
      <use xlink:href="#DejaVuSans-73" transform="translate(1360.3125 0)"/>
      <use xlink:href="#DejaVuSans-29" transform="translate(1412.412109 0)"/>
     </g>
    </g>
   </g>
   <g id="line2d_22">
    <path d="M 44.089063 143.35705 
L 46.922482 168.980822 
L 49.755902 148.393679 
L 52.589322 156.138446 
L 55.422742 158.541342 
L 58.256162 154.655059 
L 61.089582 155.820091 
L 63.923002 168.353698 
L 66.756422 154.003481 
L 69.589842 168.889369 
L 72.423262 165.385947 
L 75.256682 164.589165 
L 78.090101 171.951854 
L 80.923521 161.491571 
L 83.756941 158.51712 
L 86.590361 149.868406 
L 89.423781 169.27248 
L 92.257201 155.000126 
L 95.090621 144.764909 
L 97.924041 160.275371 
L 100.757461 168.08214 
L 103.590881 156.579789 
L 106.424301 164.650027 
L 109.257721 160.22166 
L 112.09114 152.558392 
L 114.92456 149.83199 
L 117.75798 160.412703 
L 120.5914 167.354962 
L 123.42482 148.759397 
L 126.25824 160.262992 
L 129.09166 153.391402 
L 131.92508 164.926205 
L 134.7585 155.575702 
L 137.59192 149.452914 
L 140.42534 160.367775 
L 143.258759 157.974645 
L 146.092179 148.986822 
L 148.925599 156.505775 
L 151.759019 155.70902 
L 154.592439 159.695646 
L 157.425859 154.205162 
L 160.259279 157.326783 
L 163.092699 172.179462 
L 165.926119 125.423069 
L 168.759539 158.457645 
L 171.592959 142.36357 
L 174.426379 162.474023 
L 177.259798 159.661361 
L 180.093218 148.592674 
L 182.926638 176.902678 
L 185.760058 154.737051 
L 188.593478 157.840842 
L 191.426898 150.759902 
L 194.260318 158.591755 
L 197.093738 161.50448 
L 199.927158 160.611571 
L 202.760578 147.745178 
L 205.593998 149.605547 
L 208.427417 166.491486 
L 211.260837 162.466622 
L 214.094257 154.57886 
L 216.927677 150.390832 
L 219.761097 151.864758 
L 222.594517 157.171889 
L 225.427937 165.574947 
L 228.261357 152.775863 
L 231.094777 161.932451 
L 233.928197 140.656517 
L 236.761617 154.331291 
L 239.595037 143.728561 
L 242.428456 157.943885 
L 245.261876 152.704003 
L 248.095296 146.818663 
L 250.928716 145.693722 
L 253.762136 155.51791 
L 256.595556 155.977341 
L 259.428976 142.405635 
L 262.262396 156.536028 
L 265.095816 158.03478 
L 267.929236 150.061631 
L 270.762656 149.121978 
L 273.596075 163.66228 
L 276.429495 158.944897 
L 279.262915 155.029005 
L 282.096335 138.958048 
L 284.929755 147.771878 
L 287.763175 162.978324 
L 290.596595 157.11537 
L 293.430015 133.180059 
L 296.263435 161.040326 
L 299.096855 158.973605 
L 301.930275 119.564539 
L 304.763695 142.192527 
L 307.597114 154.286378 
L 310.430534 126.041714 
L 313.263954 168.953646 
L 316.097374 156.256906 
L 318.930794 141.181961 
L 321.764214 158.402255 
L 324.597634 147.18289 
L 327.431054 152.186976 
L 330.264474 160.593588 
L 333.097894 159.13731 
L 335.931314 157.965501 
L 338.764733 153.125067 
L 341.598153 145.592331 
L 344.431573 150.120426 
L 347.264993 154.230403 
L 350.098413 160.778297 
L 352.931833 154.330943 
L 355.765253 141.020421 
L 358.598673 111.999348 
L 361.432093 108.587419 
L 364.265513 105.708823 
L 367.098933 67.539617 
L 369.932353 86.376538 
L 372.765772 56.987776 
L 375.599192 57.63091 
L 378.432612 55.159154 
L 381.266032 63.946602 
L 384.099452 55.129052 
L 386.932872 56.000111 
L 389.766292 72.512971 
L 392.599712 28.36852 
L 395.433132 49.367839 
L 398.266552 50.821705 
L 401.099972 66.115353 
L 403.933392 62.258473 
L 406.766811 62.256962 
L 409.600231 63.125355 
L 412.433651 73.769506 
L 415.267071 73.619751 
L 418.100491 79.764996 
L 420.933911 69.898479 
L 423.767331 48.974298 
L 426.600751 75.012746 
L 429.434171 76.020809 
L 432.267591 64.370357 
L 435.101011 107.433435 
L 437.93443 73.158064 
L 440.76785 99.314422 
L 443.60127 32.773252 
L 446.43469 82.080034 
L 449.26811 85.102925 
L 452.10153 72.366329 
L 454.93495 97.556722 
L 457.76837 114.312345 
L 460.60179 74.086381 
L 463.43521 91.948209 
L 466.26863 96.75588 
L 469.10205 101.897926 
L 471.935469 93.941373 
L 474.768889 97.803162 
L 477.602309 94.548698 
L 480.435729 108.86953 
L 483.269149 101.141307 
L 486.102569 123.611302 
L 488.935989 112.123664 
L 491.769409 123.070718 
L 494.602829 92.345288 
L 497.436249 123.867766 
L 500.269669 123.511868 
L 503.103088 131.971411 
L 505.936508 148.736103 
L 508.769928 155.644964 
L 511.603348 156.0187 
L 514.436768 159.033586 
L 517.270188 179.770173 
L 520.103608 172.245671 
L 520.103608 172.245671 
" clip-path="url(#pf8fe27a7a6)" style="fill: none; stroke: #2c5f8a; stroke-width: 1.5; stroke-linecap: square"/>
   </g>
   <g id="patch_4">
    <path d="M 44.089063 187.340256 
L 44.089063 20.798438 
" style="fill: none; stroke: #8c8c8c; stroke-width: 0.8; stroke-linejoin: miter; stroke-linecap: square"/>
   </g>
   <g id="patch_5">
    <path d="M 44.089063 187.340256 
L 520.103608 187.340256 
" style="fill: none; stroke: #8c8c8c; stroke-width: 0.8; stroke-linejoin: miter; stroke-linecap: square"/>
   </g>
   <g id="text_16">
    <!-- interbank market shut -->
    <g style="fill: #8c8c8c" transform="translate(401.81594 34.44727) scale(0.08 -0.08)">
     <defs>
      <path id="DejaVuSans-6b" d="M 581 4863 
L 1159 4863 
L 1159 1991 
L 2875 3500 
L 3609 3500 
L 1753 1863 
L 3688 0 
L 2938 0 
L 1159 1709 
L 1159 0 
L 581 0 
L 581 4863 
z
" transform="scale(0.015625)"/>
     </defs>
     <use xlink:href="#DejaVuSans-69"/>
     <use xlink:href="#DejaVuSans-6e" transform="translate(27.783203 0)"/>
     <use xlink:href="#DejaVuSans-74" transform="translate(91.162109 0)"/>
     <use xlink:href="#DejaVuSans-65" transform="translate(130.371094 0)"/>
     <use xlink:href="#DejaVuSans-72" transform="translate(191.894531 0)"/>
     <use xlink:href="#DejaVuSans-62" transform="translate(233.007812 0)"/>
     <use xlink:href="#DejaVuSans-61" transform="translate(296.484375 0)"/>
     <use xlink:href="#DejaVuSans-6e" transform="translate(357.763672 0)"/>
     <use xlink:href="#DejaVuSans-6b" transform="translate(421.142578 0)"/>
     <use xlink:href="#DejaVuSans-20" transform="translate(479.052734 0)"/>
     <use xlink:href="#DejaVuSans-6d" transform="translate(510.839844 0)"/>
     <use xlink:href="#DejaVuSans-61" transform="translate(608.251953 0)"/>
     <use xlink:href="#DejaVuSans-72" transform="translate(669.53125 0)"/>
     <use xlink:href="#DejaVuSans-6b" transform="translate(710.644531 0)"/>
     <use xlink:href="#DejaVuSans-65" transform="translate(764.929688 0)"/>
     <use xlink:href="#DejaVuSans-74" transform="translate(826.453125 0)"/>
     <use xlink:href="#DejaVuSans-20" transform="translate(865.662109 0)"/>
     <use xlink:href="#DejaVuSans-73" transform="translate(897.449219 0)"/>
     <use xlink:href="#DejaVuSans-68" transform="translate(949.548828 0)"/>
     <use xlink:href="#DejaVuSans-75" transform="translate(1012.927734 0)"/>
     <use xlink:href="#DejaVuSans-74" transform="translate(1076.306641 0)"/>
    </g>
   </g>
   <g id="text_17">
    <!-- The weekend widener falls out of the hedging horizon, not a special case -->
    <g style="fill: #1b1b1b" transform="translate(75.597116 14.798438) scale(0.1 -0.1)">
     <defs>
      <path id="DejaVuSans-Bold-54" d="M 31 4666 
L 4331 4666 
L 4331 3756 
L 2784 3756 
L 2784 0 
L 1581 0 
L 1581 3756 
L 31 3756 
L 31 4666 
z
" transform="scale(0.015625)"/>
      <path id="DejaVuSans-Bold-68" d="M 4056 2131 
L 4056 0 
L 2931 0 
L 2931 347 
L 2931 1625 
Q 2931 2084 2911 2256 
Q 2891 2428 2841 2509 
Q 2775 2619 2662 2680 
Q 2550 2741 2406 2741 
Q 2056 2741 1856 2470 
Q 1656 2200 1656 1722 
L 1656 0 
L 538 0 
L 538 4863 
L 1656 4863 
L 1656 2988 
Q 1909 3294 2193 3439 
Q 2478 3584 2822 3584 
Q 3428 3584 3742 3212 
Q 4056 2841 4056 2131 
z
" transform="scale(0.015625)"/>
      <path id="DejaVuSans-Bold-65" d="M 4031 1759 
L 4031 1441 
L 1416 1441 
Q 1456 1047 1700 850 
Q 1944 653 2381 653 
Q 2734 653 3104 758 
Q 3475 863 3866 1075 
L 3866 213 
Q 3469 63 3072 -14 
Q 2675 -91 2278 -91 
Q 1328 -91 801 392 
Q 275 875 275 1747 
Q 275 2603 792 3093 
Q 1309 3584 2216 3584 
Q 3041 3584 3536 3087 
Q 4031 2591 4031 1759 
z
M 2881 2131 
Q 2881 2450 2695 2645 
Q 2509 2841 2209 2841 
Q 1884 2841 1681 2658 
Q 1478 2475 1428 2131 
L 2881 2131 
z
" transform="scale(0.015625)"/>
      <path id="DejaVuSans-Bold-20" transform="scale(0.015625)"/>
      <path id="DejaVuSans-Bold-77" d="M 225 3500 
L 1313 3500 
L 1900 1088 
L 2491 3500 
L 3425 3500 
L 4013 1113 
L 4603 3500 
L 5691 3500 
L 4769 0 
L 3547 0 
L 2956 2406 
L 2369 0 
L 1147 0 
L 225 3500 
z
" transform="scale(0.015625)"/>
      <path id="DejaVuSans-Bold-6b" d="M 538 4863 
L 1656 4863 
L 1656 2216 
L 2944 3500 
L 4244 3500 
L 2534 1894 
L 4378 0 
L 3022 0 
L 1656 1459 
L 1656 0 
L 538 0 
L 538 4863 
z
" transform="scale(0.015625)"/>
      <path id="DejaVuSans-Bold-6e" d="M 4056 2131 
L 4056 0 
L 2931 0 
L 2931 347 
L 2931 1631 
Q 2931 2084 2911 2256 
Q 2891 2428 2841 2509 
Q 2775 2619 2662 2680 
Q 2550 2741 2406 2741 
Q 2056 2741 1856 2470 
Q 1656 2200 1656 1722 
L 1656 0 
L 538 0 
L 538 3500 
L 1656 3500 
L 1656 2988 
Q 1909 3294 2193 3439 
Q 2478 3584 2822 3584 
Q 3428 3584 3742 3212 
Q 4056 2841 4056 2131 
z
" transform="scale(0.015625)"/>
      <path id="DejaVuSans-Bold-64" d="M 2919 2988 
L 2919 4863 
L 4044 4863 
L 4044 0 
L 2919 0 
L 2919 506 
Q 2688 197 2409 53 
Q 2131 -91 1766 -91 
Q 1119 -91 703 423 
Q 288 938 288 1747 
Q 288 2556 703 3070 
Q 1119 3584 1766 3584 
Q 2128 3584 2408 3439 
Q 2688 3294 2919 2988 
z
M 2181 722 
Q 2541 722 2730 984 
Q 2919 1247 2919 1747 
Q 2919 2247 2730 2509 
Q 2541 2772 2181 2772 
Q 1825 2772 1636 2509 
Q 1447 2247 1447 1747 
Q 1447 1247 1636 984 
Q 1825 722 2181 722 
z
" transform="scale(0.015625)"/>
      <path id="DejaVuSans-Bold-69" d="M 538 3500 
L 1656 3500 
L 1656 0 
L 538 0 
L 538 3500 
z
M 538 4863 
L 1656 4863 
L 1656 3950 
L 538 3950 
L 538 4863 
z
" transform="scale(0.015625)"/>
      <path id="DejaVuSans-Bold-72" d="M 3138 2547 
Q 2991 2616 2845 2648 
Q 2700 2681 2553 2681 
Q 2122 2681 1889 2404 
Q 1656 2128 1656 1613 
L 1656 0 
L 538 0 
L 538 3500 
L 1656 3500 
L 1656 2925 
Q 1872 3269 2151 3426 
Q 2431 3584 2822 3584 
Q 2878 3584 2943 3579 
Q 3009 3575 3134 3559 
L 3138 2547 
z
" transform="scale(0.015625)"/>
      <path id="DejaVuSans-Bold-66" d="M 2841 4863 
L 2841 4128 
L 2222 4128 
Q 1984 4128 1890 4042 
Q 1797 3956 1797 3744 
L 1797 3500 
L 2753 3500 
L 2753 2700 
L 1797 2700 
L 1797 0 
L 678 0 
L 678 2700 
L 122 2700 
L 122 3500 
L 678 3500 
L 678 3744 
Q 678 4316 997 4589 
Q 1316 4863 1984 4863 
L 2841 4863 
z
" transform="scale(0.015625)"/>
      <path id="DejaVuSans-Bold-61" d="M 2106 1575 
Q 1756 1575 1579 1456 
Q 1403 1338 1403 1106 
Q 1403 894 1545 773 
Q 1688 653 1941 653 
Q 2256 653 2472 879 
Q 2688 1106 2688 1447 
L 2688 1575 
L 2106 1575 
z
M 3816 1997 
L 3816 0 
L 2688 0 
L 2688 519 
Q 2463 200 2181 54 
Q 1900 -91 1497 -91 
Q 953 -91 614 226 
Q 275 544 275 1050 
Q 275 1666 698 1953 
Q 1122 2241 2028 2241 
L 2688 2241 
L 2688 2328 
Q 2688 2594 2478 2717 
Q 2269 2841 1825 2841 
Q 1466 2841 1156 2769 
Q 847 2697 581 2553 
L 581 3406 
Q 941 3494 1303 3539 
Q 1666 3584 2028 3584 
Q 2975 3584 3395 3211 
Q 3816 2838 3816 1997 
z
" transform="scale(0.015625)"/>
      <path id="DejaVuSans-Bold-6c" d="M 538 4863 
L 1656 4863 
L 1656 0 
L 538 0 
L 538 4863 
z
" transform="scale(0.015625)"/>
      <path id="DejaVuSans-Bold-73" d="M 3272 3391 
L 3272 2541 
Q 2913 2691 2578 2766 
Q 2244 2841 1947 2841 
Q 1628 2841 1473 2761 
Q 1319 2681 1319 2516 
Q 1319 2381 1436 2309 
Q 1553 2238 1856 2203 
L 2053 2175 
Q 2913 2066 3209 1816 
Q 3506 1566 3506 1031 
Q 3506 472 3093 190 
Q 2681 -91 1863 -91 
Q 1516 -91 1145 -36 
Q 775 19 384 128 
L 384 978 
Q 719 816 1070 734 
Q 1422 653 1784 653 
Q 2113 653 2278 743 
Q 2444 834 2444 1013 
Q 2444 1163 2330 1236 
Q 2216 1309 1875 1350 
L 1678 1375 
Q 931 1469 631 1722 
Q 331 1975 331 2491 
Q 331 3047 712 3315 
Q 1094 3584 1881 3584 
Q 2191 3584 2531 3537 
Q 2872 3491 3272 3391 
z
" transform="scale(0.015625)"/>
      <path id="DejaVuSans-Bold-6f" d="M 2203 2784 
Q 1831 2784 1636 2517 
Q 1441 2250 1441 1747 
Q 1441 1244 1636 976 
Q 1831 709 2203 709 
Q 2569 709 2762 976 
Q 2956 1244 2956 1747 
Q 2956 2250 2762 2517 
Q 2569 2784 2203 2784 
z
M 2203 3584 
Q 3106 3584 3614 3096 
Q 4122 2609 4122 1747 
Q 4122 884 3614 396 
Q 3106 -91 2203 -91 
Q 1297 -91 786 396 
Q 275 884 275 1747 
Q 275 2609 786 3096 
Q 1297 3584 2203 3584 
z
" transform="scale(0.015625)"/>
      <path id="DejaVuSans-Bold-75" d="M 500 1363 
L 500 3500 
L 1625 3500 
L 1625 3150 
Q 1625 2866 1622 2436 
Q 1619 2006 1619 1863 
Q 1619 1441 1641 1255 
Q 1663 1069 1716 984 
Q 1784 875 1895 815 
Q 2006 756 2150 756 
Q 2500 756 2700 1025 
Q 2900 1294 2900 1772 
L 2900 3500 
L 4019 3500 
L 4019 0 
L 2900 0 
L 2900 506 
Q 2647 200 2364 54 
Q 2081 -91 1741 -91 
Q 1134 -91 817 281 
Q 500 653 500 1363 
z
" transform="scale(0.015625)"/>
      <path id="DejaVuSans-Bold-74" d="M 1759 4494 
L 1759 3500 
L 2913 3500 
L 2913 2700 
L 1759 2700 
L 1759 1216 
Q 1759 972 1856 886 
Q 1953 800 2241 800 
L 2816 800 
L 2816 0 
L 1856 0 
Q 1194 0 917 276 
Q 641 553 641 1216 
L 641 2700 
L 84 2700 
L 84 3500 
L 641 3500 
L 641 4494 
L 1759 4494 
z
" transform="scale(0.015625)"/>
      <path id="DejaVuSans-Bold-67" d="M 2919 594 
Q 2688 288 2409 144 
Q 2131 0 1766 0 
Q 1125 0 706 504 
Q 288 1009 288 1791 
Q 288 2575 706 3076 
Q 1125 3578 1766 3578 
Q 2131 3578 2409 3434 
Q 2688 3291 2919 2981 
L 2919 3500 
L 4044 3500 
L 4044 353 
Q 4044 -491 3511 -936 
Q 2978 -1381 1966 -1381 
Q 1638 -1381 1331 -1331 
Q 1025 -1281 716 -1178 
L 716 -306 
Q 1009 -475 1290 -558 
Q 1572 -641 1856 -641 
Q 2406 -641 2662 -400 
Q 2919 -159 2919 353 
L 2919 594 
z
M 2181 2772 
Q 1834 2772 1640 2515 
Q 1447 2259 1447 1791 
Q 1447 1309 1634 1061 
Q 1822 813 2181 813 
Q 2531 813 2725 1069 
Q 2919 1325 2919 1791 
Q 2919 2259 2725 2515 
Q 2531 2772 2181 2772 
z
" transform="scale(0.015625)"/>
      <path id="DejaVuSans-Bold-7a" d="M 366 3500 
L 3419 3500 
L 3419 2719 
L 1575 800 
L 3419 800 
L 3419 0 
L 288 0 
L 288 781 
L 2131 2700 
L 366 2700 
L 366 3500 
z
" transform="scale(0.015625)"/>
      <path id="DejaVuSans-Bold-2c" d="M 653 1209 
L 1778 1209 
L 1778 256 
L 1006 -909 
L 341 -909 
L 653 256 
L 653 1209 
z
" transform="scale(0.015625)"/>
      <path id="DejaVuSans-Bold-70" d="M 1656 506 
L 1656 -1331 
L 538 -1331 
L 538 3500 
L 1656 3500 
L 1656 2988 
Q 1888 3294 2169 3439 
Q 2450 3584 2816 3584 
Q 3463 3584 3878 3070 
Q 4294 2556 4294 1747 
Q 4294 938 3878 423 
Q 3463 -91 2816 -91 
Q 2450 -91 2169 54 
Q 1888 200 1656 506 
z
M 2400 2772 
Q 2041 2772 1848 2508 
Q 1656 2244 1656 1747 
Q 1656 1250 1848 986 
Q 2041 722 2400 722 
Q 2759 722 2948 984 
Q 3138 1247 3138 1747 
Q 3138 2247 2948 2509 
Q 2759 2772 2400 2772 
z
" transform="scale(0.015625)"/>
      <path id="DejaVuSans-Bold-63" d="M 3366 3391 
L 3366 2478 
Q 3138 2634 2908 2709 
Q 2678 2784 2431 2784 
Q 1963 2784 1702 2511 
Q 1441 2238 1441 1747 
Q 1441 1256 1702 982 
Q 1963 709 2431 709 
Q 2694 709 2930 787 
Q 3166 866 3366 1019 
L 3366 103 
Q 3103 6 2833 -42 
Q 2563 -91 2291 -91 
Q 1344 -91 809 395 
Q 275 881 275 1747 
Q 275 2613 809 3098 
Q 1344 3584 2291 3584 
Q 2566 3584 2833 3536 
Q 3100 3488 3366 3391 
z
" transform="scale(0.015625)"/>
     </defs>
     <use xlink:href="#DejaVuSans-Bold-54"/>
     <use xlink:href="#DejaVuSans-Bold-68" transform="translate(68.212891 0)"/>
     <use xlink:href="#DejaVuSans-Bold-65" transform="translate(139.404297 0)"/>
     <use xlink:href="#DejaVuSans-Bold-20" transform="translate(207.226562 0)"/>
     <use xlink:href="#DejaVuSans-Bold-77" transform="translate(242.041016 0)"/>
     <use xlink:href="#DejaVuSans-Bold-65" transform="translate(334.423828 0)"/>
     <use xlink:href="#DejaVuSans-Bold-65" transform="translate(402.246094 0)"/>
     <use xlink:href="#DejaVuSans-Bold-6b" transform="translate(470.068359 0)"/>
     <use xlink:href="#DejaVuSans-Bold-65" transform="translate(533.947266 0)"/>
     <use xlink:href="#DejaVuSans-Bold-6e" transform="translate(601.769531 0)"/>
     <use xlink:href="#DejaVuSans-Bold-64" transform="translate(672.960938 0)"/>
     <use xlink:href="#DejaVuSans-Bold-20" transform="translate(744.542969 0)"/>
     <use xlink:href="#DejaVuSans-Bold-77" transform="translate(779.357422 0)"/>
     <use xlink:href="#DejaVuSans-Bold-69" transform="translate(871.740234 0)"/>
     <use xlink:href="#DejaVuSans-Bold-64" transform="translate(906.017578 0)"/>
     <use xlink:href="#DejaVuSans-Bold-65" transform="translate(977.599609 0)"/>
     <use xlink:href="#DejaVuSans-Bold-6e" transform="translate(1045.421875 0)"/>
     <use xlink:href="#DejaVuSans-Bold-65" transform="translate(1116.613281 0)"/>
     <use xlink:href="#DejaVuSans-Bold-72" transform="translate(1184.435547 0)"/>
     <use xlink:href="#DejaVuSans-Bold-20" transform="translate(1233.751953 0)"/>
     <use xlink:href="#DejaVuSans-Bold-66" transform="translate(1268.566406 0)"/>
     <use xlink:href="#DejaVuSans-Bold-61" transform="translate(1312.072266 0)"/>
     <use xlink:href="#DejaVuSans-Bold-6c" transform="translate(1379.552734 0)"/>
     <use xlink:href="#DejaVuSans-Bold-6c" transform="translate(1413.830078 0)"/>
     <use xlink:href="#DejaVuSans-Bold-73" transform="translate(1448.107422 0)"/>
     <use xlink:href="#DejaVuSans-Bold-20" transform="translate(1507.628906 0)"/>
     <use xlink:href="#DejaVuSans-Bold-6f" transform="translate(1542.443359 0)"/>
     <use xlink:href="#DejaVuSans-Bold-75" transform="translate(1611.144531 0)"/>
     <use xlink:href="#DejaVuSans-Bold-74" transform="translate(1682.335938 0)"/>
     <use xlink:href="#DejaVuSans-Bold-20" transform="translate(1730.138672 0)"/>
     <use xlink:href="#DejaVuSans-Bold-6f" transform="translate(1764.953125 0)"/>
     <use xlink:href="#DejaVuSans-Bold-66" transform="translate(1833.654297 0)"/>
     <use xlink:href="#DejaVuSans-Bold-20" transform="translate(1877.160156 0)"/>
     <use xlink:href="#DejaVuSans-Bold-74" transform="translate(1911.974609 0)"/>
     <use xlink:href="#DejaVuSans-Bold-68" transform="translate(1959.777344 0)"/>
     <use xlink:href="#DejaVuSans-Bold-65" transform="translate(2030.96875 0)"/>
     <use xlink:href="#DejaVuSans-Bold-20" transform="translate(2098.791016 0)"/>
     <use xlink:href="#DejaVuSans-Bold-68" transform="translate(2133.605469 0)"/>
     <use xlink:href="#DejaVuSans-Bold-65" transform="translate(2204.796875 0)"/>
     <use xlink:href="#DejaVuSans-Bold-64" transform="translate(2272.619141 0)"/>
     <use xlink:href="#DejaVuSans-Bold-67" transform="translate(2344.201172 0)"/>
     <use xlink:href="#DejaVuSans-Bold-69" transform="translate(2415.783203 0)"/>
     <use xlink:href="#DejaVuSans-Bold-6e" transform="translate(2450.060547 0)"/>
     <use xlink:href="#DejaVuSans-Bold-67" transform="translate(2521.251953 0)"/>
     <use xlink:href="#DejaVuSans-Bold-20" transform="translate(2592.833984 0)"/>
     <use xlink:href="#DejaVuSans-Bold-68" transform="translate(2627.648438 0)"/>
     <use xlink:href="#DejaVuSans-Bold-6f" transform="translate(2698.839844 0)"/>
     <use xlink:href="#DejaVuSans-Bold-72" transform="translate(2767.541016 0)"/>
     <use xlink:href="#DejaVuSans-Bold-69" transform="translate(2816.857422 0)"/>
     <use xlink:href="#DejaVuSans-Bold-7a" transform="translate(2851.134766 0)"/>
     <use xlink:href="#DejaVuSans-Bold-6f" transform="translate(2909.337891 0)"/>
     <use xlink:href="#DejaVuSans-Bold-6e" transform="translate(2978.039062 0)"/>
     <use xlink:href="#DejaVuSans-Bold-2c" transform="translate(3049.230469 0)"/>
     <use xlink:href="#DejaVuSans-Bold-20" transform="translate(3087.21875 0)"/>
     <use xlink:href="#DejaVuSans-Bold-6e" transform="translate(3122.033203 0)"/>
     <use xlink:href="#DejaVuSans-Bold-6f" transform="translate(3193.224609 0)"/>
     <use xlink:href="#DejaVuSans-Bold-74" transform="translate(3261.925781 0)"/>
     <use xlink:href="#DejaVuSans-Bold-20" transform="translate(3309.728516 0)"/>
     <use xlink:href="#DejaVuSans-Bold-61" transform="translate(3344.542969 0)"/>
     <use xlink:href="#DejaVuSans-Bold-20" transform="translate(3412.023438 0)"/>
     <use xlink:href="#DejaVuSans-Bold-73" transform="translate(3446.837891 0)"/>
     <use xlink:href="#DejaVuSans-Bold-70" transform="translate(3506.359375 0)"/>
     <use xlink:href="#DejaVuSans-Bold-65" transform="translate(3577.941406 0)"/>
     <use xlink:href="#DejaVuSans-Bold-63" transform="translate(3645.763672 0)"/>
     <use xlink:href="#DejaVuSans-Bold-69" transform="translate(3705.041016 0)"/>
     <use xlink:href="#DejaVuSans-Bold-61" transform="translate(3739.318359 0)"/>
     <use xlink:href="#DejaVuSans-Bold-6c" transform="translate(3806.798828 0)"/>
     <use xlink:href="#DejaVuSans-Bold-20" transform="translate(3841.076172 0)"/>
     <use xlink:href="#DejaVuSans-Bold-63" transform="translate(3875.890625 0)"/>
     <use xlink:href="#DejaVuSans-Bold-61" transform="translate(3935.167969 0)"/>
     <use xlink:href="#DejaVuSans-Bold-73" transform="translate(4002.648438 0)"/>
     <use xlink:href="#DejaVuSans-Bold-65" transform="translate(4062.169922 0)"/>
    </g>
   </g>
  </g>
 </g>
 <defs>
  <clipPath id="pf8fe27a7a6">
   <rect x="44.089063" y="20.798438" width="476.014545" height="166.541818"/>
  </clipPath>
 </defs>
</svg>
